/* XPM */
static char * downloadManager16_xpm[] = {
"16 16 138 2",
"  	c None",
". 	c #008000",
"+ 	c #007F00",
"@ 	c #007E00",
"# 	c #E1FFCD",
"$ 	c #C5FDB0",
"% 	c #A5FA96",
"& 	c #007C00",
"* 	c #1E8E1E",
"= 	c #C3FDAE",
"- 	c #75F561",
"; 	c #65F056",
"> 	c #96F685",
", 	c #1E8D1E",
"' 	c #238319",
") 	c #9CDD8D",
"! 	c #A9F994",
"~ 	c #74F360",
"{ 	c #6BF15A",
"] 	c #58E449",
"^ 	c #4BDC3F",
"/ 	c #61E457",
"( 	c #61D759",
"_ 	c #1C8012",
": 	c #A18B66",
"< 	c #7BB560",
"[ 	c #6FC665",
"} 	c #9DF78C",
"| 	c #5FE851",
"1 	c #50DE44",
"2 	c #79ED6C",
"3 	c #4CC245",
"4 	c #639939",
"5 	c #967C4E",
"6 	c #856C46",
"7 	c #8D754A",
"8 	c #9D8658",
"9 	c #6E7E3C",
"0 	c #40A637",
"a 	c #8CEE7F",
"b 	c #7EEB71",
"c 	c #32A22B",
"d 	c #4D642D",
"e 	c #5F5538",
"f 	c #766746",
"g 	c #988056",
"h 	c #977F57",
"i 	c #90815E",
"j 	c #7D683E",
"k 	c #927C4E",
"l 	c #8D784C",
"m 	c #757440",
"n 	c #298B1D",
"o 	c #2E8820",
"p 	c #5F6437",
"q 	c #655A3B",
"r 	c #5D5437",
"s 	c #837553",
"t 	c #D1BE8B",
"u 	c #8F7648",
"v 	c #7F653F",
"w 	c #C4B491",
"x 	c #EFE2B5",
"y 	c #E7D6A2",
"z 	c #E1CF97",
"A 	c #DBC88E",
"B 	c #D6C286",
"C 	c #D1BD80",
"D 	c #CDB879",
"E 	c #C9B374",
"F 	c #C4AF6F",
"G 	c #C1AA6A",
"H 	c #A28A55",
"I 	c #7D633E",
"J 	c #7E633E",
"K 	c #6F5838",
"L 	c #776242",
"M 	c #745E3C",
"N 	c #745F3D",
"O 	c #755F3D",
"P 	c #75603E",
"Q 	c #76603E",
"R 	c #796444",
"S 	c #7A613C",
"T 	c #53442E",
"U 	c #837C63",
"V 	c #746947",
"W 	c #766B49",
"X 	c #786D4B",
"Y 	c #796F4D",
"Z 	c #7A704F",
"` 	c #7C7150",
" .	c #7C7251",
"..	c #7C7352",
"+.	c #8C8671",
"@.	c #8C7046",
"#.	c #CFC091",
"$.	c #B9A469",
"%.	c #BCA86D",
"&.	c #BFAB70",
"*.	c #C1AD73",
"=.	c #BBA972",
"-.	c #BDAB74",
";.	c #BEAC76",
">.	c #BFAD77",
",.	c #D6CAA2",
"'.	c #7B633F",
").	c #DDCC9A",
"!.	c #C6B071",
"~.	c #C9B475",
"{.	c #CCB778",
"].	c #D0BA7C",
"^.	c #D3BE7F",
"/.	c #D5C082",
"(.	c #D7C285",
"_.	c #D8C386",
":.	c #F0E2B4",
"<.	c #DECD9B",
"[.	c #CCB77A",
"}.	c #CBB576",
"|.	c #CEB97B",
"1.	c #D2BD7E",
"2.	c #DAC688",
"3.	c #E0CD93",
"4.	c #F2E5B8",
"5.	c #8B7046",
"6.	c #DECE9C",
"7.	c #E2D1A0",
"8.	c #E5D5A5",
"9.	c #E9D9AA",
"0.	c #ECDDAE",
"a.	c #EEE0B2",
"b.	c #F1E3B6",
"c.	c #F3E6BA",
"d.	c #F4E8BC",
"e.	c #8A6E45",
"f.	c #8A6F45",
"g.	c #866B43",
"          . + . . + @           ",
"          + # $ $ % &           ",
"    * * * . = - ; > . * , +     ",
"      ' ) ! ~ { ] ^ / ( _       ",
"      : < [ } | 1 2 3 4 5       ",
"    6 7 8 9 0 a b c d e f g     ",
"  h i j k l m n o p q r s t u   ",
"  v w x y z A B C D E F G H I   ",
"  J K L M N O O P P Q Q R K S   ",
"    T U V W X Y Z `  ...+.T     ",
"    @.#.$.%.&.*.=.-.;.>.,.'.    ",
"    @.).!.~.{.].^./.(._.:.@.    ",
"    @.<.[.}.|.1./._.2.3.4.@.    ",
"    5.6.7.8.9.0.a.b.c.d.d.e.    ",
"    5.f.@.@.@.@.@.@.@.@.e.g.    ",
"                                "};
