/* XPM */
const char * iconZoomWorld16x16[] = {
"16 16 14 1",
"   c None",
".  c #000000",
"+  c #FFFFFF",
"@  c #C0C000",
"#  c #FFA858",
"$  c #808000",
"%  c #0000FF",
"&  c #800000",
"*  c #0000C0",
"=  c #FF8000",
"-  c #000080",
";  c #FFDCA8",
">  c #C05800",
",  c #C0C0FF",
"     ......     ",
"   ..+@+@++..   ",
"  .@#@#$#$#@+.  ",
" .%#&*&##*$#$#. ",
" .%*****#@#@#$. ",
".%*$@$*=$#@-@#$.",
".%=;#;#@=*#*-@%.",
".%@#;#;##>*-*-%.",
".%*@$@=@#=-*,*%.",
".%*-*$@=@-*-*,%.",
".%**-$#@$*-*-*%.",
" .%-*-;#*-#-*%. ",
" .%***=@-*-*%%. ",
"  .,,**-**-%,.  ",
"   ..,*,,*,..   ",
"     ......     "};
