/* XPM */
static char * unknown_flag_xpm[] = {
"21 14 10 1",
" 	c None",
".	c #000000",
"+	c #383838",
"@	c #AAAAAA",
"#	c #717171",
"$	c #C6C6C6",
"%	c #8D8D8D",
"&	c #555555",
"*	c #E2E2E2",
"=	c #FFFFFF",
".....................",
".....................",
".....................",
"........+@@@#........",
".......+$%&&*#.......",
".......&=&..=@.......",
"...........&*#.......",
"..........+=#........",
".........#*&.........",
".........+&..........",
".........@=..........",
".........#@..........",
".....................",
"....................."};
