P3
3 1
255
103  79  59
 95  71  55
 87  67  51
